<?xml version="1.0" encoding="UTF-8" standalone="no"?>
<!-- Created with Inkscape (http://www.inkscape.org/) -->

<svg
   xmlns:dc="http://purl.org/dc/elements/1.1/"
   xmlns:cc="http://creativecommons.org/ns#"
   xmlns:rdf="http://www.w3.org/1999/02/22-rdf-syntax-ns#"
   xmlns:svg="http://www.w3.org/2000/svg"
   xmlns="http://www.w3.org/2000/svg"
   xmlns:sodipodi="http://sodipodi.sourceforge.net/DTD/sodipodi-0.dtd"
   xmlns:inkscape="http://www.inkscape.org/namespaces/inkscape"
   width="32"
   height="32"
   viewBox="0 0 32 32"
   id="svg2"
   version="1.1"
   inkscape:version="0.91 r13725"
   sodipodi:docname="favicon.svg"
   inkscape:export-filename="/home/german/Projects/Web/portfolio/favicon.png"
   inkscape:export-xdpi="45"
   inkscape:export-ydpi="45">
  <sodipodi:namedview
     id="base"
     pagecolor="#ffffff"
     bordercolor="#666666"
     borderopacity="1.0"
     inkscape:pageopacity="0.0"
     inkscape:pageshadow="2"
     inkscape:zoom="11.2"
     inkscape:cx="10.315244"
     inkscape:cy="20.291031"
     inkscape:document-units="px"
     inkscape:current-layer="layer1"
     showgrid="false"
     units="px" />
  <g
     inkscape:label="Layer 1"
     inkscape:groupmode="layer"
     id="layer1"
     transform="translate(0,-1020.3622)">
    <circle
       fill="#506379"
       id="path4147"
       cx="16"
       cy="1036.3622"
       r="16" />
    <g
       fill="#ffffff"
       id="text4157"
       transform="matrix(0.82641148,0,0,0.78545051,2.8025496,222.18643)">
      <path
         d="m 15.373891,1022.5686 0.09766,0.098 0,4.3554 -0.566406,0.3907 0,0.098 0.292968,0.098 q 0,-0.293 0.175782,-0.293 l 0.09766,0 0,0.1953 -2.460938,0.8594 -1.621093,1.2305 -0.761719,-0.1954 q 0.195312,0.4297 0.390625,0.4688 0,-0.2734 0.175781,-0.2734 l 0,0.1757 q -1.6210936,1.9532 -2.0703124,4.9414 l -0.097656,-0.098 -0.2929688,0 q 0,0.1953 0.2929688,0.1953 l 0.097656,0.098 0,0.1953 q 0,1.1328 -0.2929687,1.1328 l -0.097656,0 0.097656,0.098 0,0.1953 -0.1953125,0.1758 -0.2734375,-0.098 -0.097656,0.098 0,0.098 0.097656,0.098 0.097656,0 0.2734375,-0.098 q 0.3515625,0.3515 0.6640625,2.9492 l -0.2734375,0.2734 -0.097656,0 0,0.098 0.1757812,0 0,-0.098 q 0.4882813,0 0.4882813,0.8594 l -0.097656,0.098 q 0.2148438,0.059 1.5234371,2.3828 0,0.2148 1.992188,1.5039 l 1.601562,0.3906 0,0.2735 -0.09766,0.098 0,0.098 -0.07813,-0.098 -0.195313,0 0,0.293 -0.195312,0 0,-0.098 0.09766,-0.098 0,-0.098 -0.566406,-0.098 q -0.292969,0.8593 -1.054688,0.8593 l 0,0.1953 q 0.292969,0 0.292969,0.3711 l 0,0.098 0.371094,-0.098 -0.07813,-0.098 0,-0.078 q 0.46875,0 0.46875,-0.1954 l 0,-0.1953 -0.09766,-0.2734 0.09766,0 0.371094,-0.098 0.195312,0 0.664063,0.1758 0,-0.078 q 0.390625,0.1367 0.390625,0.2734 l -0.09766,0.098 0,0.098 0.09766,0 -0.09766,0.098 0,0.2734 0.09766,0.098 0,0.098 -0.09766,0.098 -0.09766,0 -0.195312,-0.1953 q 0,0.1953 -0.292969,0.1953 l -0.07813,0.4688 0.07813,0 0.390625,-0.098 q 0,0.1953 0.371094,0.1953 l 0,0.1953 -0.175782,0.4688 -0.09766,0 -0.390625,-0.1953 -0.371094,0.2929 0,0.1953 0.195313,0 0,0.3711 -0.195313,0.1953 -0.390625,0.098 0,-0.293 0.195313,0 0,-0.1953 -0.273438,-0.078 q 0.566407,-0.7031 0.566407,-1.0547 -0.214844,0 -0.664063,0.7617 l 0.09766,0.098 -0.09766,0 -0.292969,-0.1953 -0.09766,0 -0.175781,0.1953 q 0,0.2734 0.371094,0.2734 l -0.09766,0.293 0.09766,0.4687 -0.09766,-0.098 -0.09766,0 0,0.098 q 0.292969,0 0.390625,0.6641 l -0.195312,0 0,0.098 -1.699219,-0.3711 0.07813,-0.4883 -0.566406,-0.1758 -0.195313,0.1758 q 0,-0.3711 -0.273437,-0.3711 l -0.09766,0 q 0,0.3711 -0.371093,0.3711 -1.7187501,-0.5274 -4.0820313,-2.9297 l 0.078125,-0.3906 -0.078125,-0.098 -0.097656,0 -0.1953125,0.1953 -1.4257812,-1.9922 0.097656,-0.2929 -0.097656,0 q -0.3515625,0 -1.2304688,-2.5586 0,-0.8594 0.6640625,-0.8594 l -0.097656,-0.4687 q 0.1953125,0 0.1953125,0.2929 l 0.097656,-0.098 0.078125,0 0.097656,0.098 0,-0.2929 0.2929687,0 0.1953125,0.1953 -0.2929687,0.2734 0.097656,0.098 0,0.1953 -0.097656,-0.098 -0.097656,0 -0.097656,0.6641 0.4882812,0.098 0,-0.098 q 0.5859375,0 0.9375,0.5664 l -0.097656,0.098 0.097656,0.098 0.1953125,0 -0.1953125,-0.5664 0.097656,0 0.2929687,0.098 0,-0.098 0.2734375,0.1953 0.097656,-0.098 0.1953125,0 0,0.1954 0.1953125,-0.1954 0,-0.098 -0.097656,-0.098 0,-0.098 0.097656,-0.098 -0.097656,-0.098 -0.097656,0 q 0,0.3906 -0.2929688,0.3906 l -0.097656,0 q -0.4296875,-0.4688 -0.6640625,-0.4688 l -0.1757813,0.1758 -0.390625,0 q -0.1953125,-0.039 -0.3710937,-0.4687 0,-0.4688 0.46875,-0.7617 l 0.097656,0.098 0,-0.098 0.3710938,0.1953 0.097656,-0.098 0,-0.098 -0.097656,-0.098 0.1953125,-0.3711 -0.097656,-0.098 0.097656,-0.098 -0.1953125,0 -0.078125,0.098 -0.097656,0 -0.2929687,-0.098 0,0.098 -0.1953125,0.1954 0,-0.098 -0.5664063,0.1953 -0.859375,0 0,0.1758 -0.46875,0 q -0.3710937,0 -0.3710937,-1.4258 l 0.46875,0.293 0.2929687,0 0,-0.1953 -0.097656,-0.4688 0.2734375,-0.2929 -0.097656,0 -0.3710937,0.2929 -0.1953125,-0.3906 0.097656,-0.078 -0.3710937,-0.1953 q 0.058594,0.5664 0.1757812,0.5664 l -0.078125,0.2929 q -0.2929687,0 -0.2929687,-2.0898 0,-2.2852 0.2929687,-2.2852 l -0.097656,-0.098 0,-0.098 q 0.2539062,-2.9101 2.4609375,-6.4453 4.140625,-4.9414 10.0585946,-4.9414 z m 13.90625,14.3359 -0.03906,0.1954 q -0.136719,0 -0.175781,-0.1954 l 0.214844,0 z m -0.605469,0 0,0.1954 -0.09766,0.4687 -0.371094,-0.098 -0.292969,0.098 0.09766,0.293 0.371094,-0.1953 0,0.1953 0.292969,0 0.09766,-0.098 0.09766,0 0,0.098 -0.09766,0.2734 0.46875,0 q 0,3.7891 -3.222656,8.1641 -4.199219,4.2773 -9.394531,4.2773 l 0,-0.1953 q 0.273437,0 0.273437,-0.1758 l -0.371094,0 0,-1.3281 0.175782,0 0,-0.5859 0.292968,0 0.292969,0.1953 0.07813,0 0.390625,-0.1953 -0.566406,-0.7618 0,-0.3711 q 0,-1.0156 0.761719,-1.1328 l -0.09766,-0.098 0.09766,-0.098 0,-0.3711 -0.488282,0.078 0,-0.2735 0.859375,-0.1953 0,0.098 -0.09766,0.098 0,0.098 0.195313,0 q 0,-0.3907 1.523437,-1.1524 1.132813,-0.9375 1.132813,-1.2304 l 0.664062,0 0,-0.098 -0.09766,-0.098 0,-0.078 -0.09766,0.078 -0.175782,0 0,-0.078 q 0,-0.1562 0.839844,-0.664 l 0,-0.293 -0.07813,-0.4688 0.07813,-0.098 0.195313,0 0.09766,0.098 0.09766,-0.098 0.09766,0 q 0.273438,0 0.273438,0.2734 l 0.09766,0 0,-0.3711 -0.46875,0 q -0.195312,0 -0.195312,-0.2929 l 0.09766,-0.6641 0.09766,0 0.273438,0.1953 0.09766,0 -0.09766,-0.098 q 0.05859,-0.4688 0.292968,-0.4688 l 0,-0.1953 q -0.371093,0 -0.371093,-0.1953 l 0,-0.5664 0.07813,-0.098 0,-0.078 0.09766,0.078 0.195312,0 q 0,-0.1758 0.292969,-0.1758 l 0.07813,-0.4882 -0.175781,0 0,0.1953 -0.195313,0.1953 -0.292968,0 0,-0.098 q -0.117188,-1.0547 0.01953,-1.0547 l 0.195312,0 0,-0.078 -0.175781,-0.293 5.761719,0 z m -21.3671876,-9.4921 0,0.2734 q 0.4101562,-0.2149 0.46875,-0.4688 l -0.078125,0 -0.390625,0.1954 z m -2.65625,4.1796 0,0.1954 0.2929687,0 0,-0.1954 -0.2929687,0 z m 4.375,1.8946 q 0,0.1953 -0.2929688,0.1953 l 0,0.1758 0.097656,0 0.3710937,-0.3711 -0.1757812,0 z m -1.9140625,0.1953 0,0.1758 0.2929687,0 0,-0.1758 -0.2929687,0 z m -2.4609375,0.9375 0,0.1953 0.1953125,0.1953 0.097656,-0.098 0,-0.293 -0.2929687,0 z m 0.859375,0.3906 0,0.1953 0.2734375,0 0,-0.098 -0.2734375,-0.098 z m -1.5234375,0.3711 0,0.1953 0.2929687,0.098 0,-0.098 -0.2929687,-0.1953 z m 2.0898437,0.1953 0,0.098 0.097656,0.2734 q -0.3125,0.2344 -0.859375,0.293 0,-0.2344 -0.3710938,-0.293 l -0.097656,0.098 0,0.098 q 0.7617187,0 0.7617187,0.9571 l -0.097656,0 q -0.1953125,0 -0.1953125,0.2734 -0.7617188,0.332 -0.7617188,0.4883 l 0.097656,0 q 0.859375,-0.1953 0.859375,-0.586 l 0.5664062,-0.078 0,0.078 0.097656,-0.078 0.1953125,0 -0.097656,0.078 0,0.098 0.097656,0.098 0.078125,-0.098 0.097656,0 0.1953125,0.1953 -0.097656,0.098 0.46875,0 0,-0.098 -0.078125,-0.293 0.1757812,0 0,0.1953 0.2929688,0 -0.097656,-0.098 0,-0.1758 0.097656,0 0.3710937,0.2734 0.2929688,-0.098 -0.097656,-0.098 0,-0.078 0.097656,-0.4883 -0.5664063,0 0,-0.1758 -0.097656,0 0,0.1758 q -0.6640625,-0.1367 -0.6640625,-0.4687 l 0,-0.098 -0.097656,0.098 -0.097656,0 q -0.3320313,-0.2149 -0.46875,-0.6641 l -0.097656,0 z m -1.796875,1.0352 0,0.2929 0.2734375,-0.098 0,-0.1953 -0.097656,0.098 -0.097656,0 -0.078125,-0.098 z m 19.4531254,0.4883 q 0,0.2734 -0.195313,0.2734 l -0.07813,-0.098 -0.09766,0 0,0.098 q 0,0.2344 1.035156,0.3906 0,0.2735 0.195313,0.2735 l 0.09766,-0.098 0,-0.078 q -0.292969,0 -0.292969,-0.3907 l -0.09766,0.098 -0.09766,0 q -0.253907,0 -0.273438,-0.4687 l -0.195312,0 z m -19.5507816,0.7617 0,0.1758 0.3710937,0 -0.1953125,-0.1758 -0.1757812,0 z m 1.2304687,0 -0.097656,0.3711 q 0.1953125,0 0.1953125,-0.293 l 0,-0.078 -0.097656,0 z m 21.3671879,0.078 0,0.098 0.46875,0 -0.195313,-0.1758 -0.273437,0.078 z m -1.71875,0.1953 -0.09766,-0.098 -0.09766,0 -0.07813,0.098 0,0.1953 0.07813,-0.098 0.292969,0 0.292969,0.1953 0,-0.4883 -0.09766,0 -0.292968,0.1953 z m -20.0195316,0.3906 0,0.098 0.2734375,-0.293 -0.097656,0 -0.1757812,0.1953 z m 19.8242186,-0.098 0,0.098 0.09766,0.2735 -0.09766,0.098 0.292969,0 0,-0.098 -0.195313,-0.3711 -0.09766,0 z m 0.957031,0.2734 0.09766,0.293 0.292968,0 0,-0.1953 -0.390625,-0.098 z m 2.65625,0 -0.09766,0.293 0.292969,0 0,-0.293 -0.195313,0 z m -20.2148434,0.3906 0.097656,0.098 0,0.098 0.46875,-0.098 0,-0.1953 -0.097656,0 -0.46875,0.098 z m -0.5664062,0.1954 0.078125,0.2734 0.390625,-0.3711 -0.1953125,0 -0.2734375,0.098 z m -1.25,0.371 -0.2734375,-0.098 -0.097656,0 0,0.098 0.6640625,0.3711 0.097656,0 -0.097656,-0.4687 0.1953125,-0.1953 -0.097656,0 -0.390625,0.2929 z m 16.8164066,-0.098 0,0.098 0.09766,0.293 0.273437,0 -0.175781,-0.3906 -0.195312,0 z m -15.4882816,0.5664 q 0,0.293 -0.1757813,0.293 l -0.390625,-0.098 0,0.098 -0.097656,-0.098 -0.078125,0 -0.390625,0.5664 0.097656,0.3906 0.097656,0 q 0,-0.3906 0.46875,-0.5859 l 0.2929687,0 0,0.098 -0.1953125,0 0.2929688,0.4882 0.46875,0 0.097656,-0.098 0.097656,0 0.3710937,0.3711 0.097656,0 q -0.5859375,-0.9375 -0.859375,-0.9375 l 0,-0.4883 -0.1953125,0 z m 16.0546876,0.1953 -0.09766,0.3711 0.292968,0 0.371094,-0.1758 -0.09766,-0.098 0,-0.098 -0.09766,0.098 -0.175782,0 -0.09766,-0.098 -0.09766,0 z m -20.7031251,0.1953 0.097656,0 0.390625,0.098 0,0.078 -0.2929687,0.293 -0.097656,0 -0.097656,-0.4688 z m 2.9492187,0.1758 -0.097656,0.293 0.097656,0.2929 0.097656,0 0.097656,-0.2929 0.2734375,0.098 0,-0.2929 -0.46875,-0.098 z m -2.1875,0.957 -0.097656,0.098 0,0.098 0.9570312,0.5665 0,-0.1954 q 0,-0.332 -0.2929687,-0.5664 l -0.097656,0.098 -0.078125,0 -0.390625,-0.098 z m 19.3750004,0 0.195312,0.1953 0.07813,0 -0.175781,-0.1953 -0.09766,0 z m -13.7695316,0.4688 0,0.098 0.2929687,0 0,-0.1757 -0.2929687,0.078 z m 13.1054686,0.7617 0.09766,0.293 0.09766,0 0.175781,-0.1953 0,-0.1954 -0.175781,-0.1757 q -0.195313,0 -0.195313,0.2734 z m 1.796875,-0.098 0.09766,0.098 -0.09766,0.098 0.292969,0 -0.09766,-0.3711 -0.195313,0.1757 z m -14.042969,0 0,0.1954 0.175782,0.1953 0.195312,-0.1953 -0.273437,-0.1954 -0.09766,0 z m -3.8085934,0.586 0.390625,0.078 0.1757813,-0.2734 -0.3710938,0 -0.1953125,0.1953 z m 16.6210934,-0.098 0,0.098 0.09766,0.078 0.273437,0 0,-0.078 -0.371094,-0.098 z m -1.132812,0.3711 0.09766,0.293 0.07813,0 0.195313,-0.1953 0,-0.1953 -0.195313,-0.1758 q -0.175781,0 -0.175781,0.2734 z m -12.1679689,0.1953 0.097656,0.098 0,0.098 -0.097656,0.2735 0.097656,0.098 0.1953129,0 q 0,-0.4882 -0.2929692,-0.5664 z m 0.7617189,0.4688 -0.46875,0.4687 0.859375,-0.2734 0,-0.098 -0.390625,-0.098 z m -3.6914064,0.1953 0.097656,0.3711 0.1757812,0 0.1953125,-0.1758 0,-0.1953 -0.097656,0.098 -0.097656,-0.098 -0.2734375,0 z m -1.5234375,0.5664 0,0.293 0.097656,0 0.2734375,-0.098 -0.1757813,-0.1953 -0.1953125,0 z m 3.515625,0 0,0.3906 0.097656,0 0.097656,-0.3906 -0.1953125,0 z m 4.2773439,0 0.07813,0.098 0,0.098 -0.175781,0 0,0.1953 0.273437,-0.1953 0.09766,0.098 0,-0.098 -0.195312,-0.1953 -0.07813,0 z m -7.2265626,0.1953 0,0.2735 0.097656,0.098 0.097656,0 0,-0.098 -0.097656,-0.2735 -0.097656,0 z m 4.3749996,0.098 0,0.3711 q 0,0.4687 0.46875,0.664 l 0.195313,0 0,-0.3711 -0.664063,-0.664 z m -3.7109371,0.664 0.1953125,0.1758 0.097656,-0.078 0,0.078 0.2734375,-0.078 -0.097656,-0.293 -0.2734375,0 -0.1953125,0.1953 z m 1.328125,0.1758 0.1953125,0.1953 0.1953125,0 0.097656,-0.3711 -0.097656,0 -0.390625,0.1758 z m 8.7304691,-0.078 0.195312,0 -0.09766,0.4687 -0.09766,0 -0.175782,-0.1953 0,-0.098 0.175782,-0.1758 z m -9.1015629,0.5664 0.097656,0 0.1757812,-0.1953 0,-0.098 -0.2734375,0.293 z m 0.9375,-0.293 0,0.293 0.1953125,0 0,-0.293 -0.1953125,0 z m 0.2929688,0.3907 0.097656,0.078 -0.097656,0.098 0,0.098 0.1953125,0.1953 0.2734375,-0.098 0,0.1954 0.097656,0 q 0,-0.1954 0.390625,-0.1954 l 0.1757813,-0.1953 0,-0.1757 -0.2734375,0.1757 -0.5664063,-0.1757 -0.2929687,0 z m 9.1210941,0.1757 0,0.098 0.273437,0.098 0,-0.1953 -0.273437,0 z m -1.425782,0.293 0.175782,0 0,0.7617 -0.175782,0.1758 0,-0.9375 z m -8.3593746,0.4688 0,0.098 q 0.1953125,0.4688 0.6640625,0.4688 l 0.46875,0 0,-0.098 -0.46875,-0.078 -0.2929688,0.078 0.097656,-0.078 0,-0.1953 -0.46875,-0.1953 z m 1.796875,0.098 -0.1757813,0.293 0.1757813,0 0.097657,-0.293 -0.097657,0 z m 10.1562496,0.293 0,0.078 0.195313,0 0.09766,-0.2734 -0.09766,0 -0.195313,0.1953 z m -8.632812,0.2734 0,0.098 0.09766,0.098 0.292969,0 0,-0.098 -0.390625,-0.098 z m 1.054687,0 0.175782,0.4883 0.390625,0 0,-0.1953 q -0.195313,0 -0.195313,-0.293 l -0.371094,0 z m -3.0468746,0.1953 -0.097656,0.293 0.097656,0 0.3710937,-0.1953 0,-0.098 -0.1757812,0 -0.097656,-0.098 -0.097656,0.098 z m 2.5585936,0.293 -0.09766,0.078 0,0.098 0.195312,0 -0.09766,0.098 0,0.098 0.390625,0 0,-0.293 -0.390625,-0.078 z m 3.320313,-0.098 0.09766,0 0,0.7618 -0.09766,0.078 0,0.098 -0.273438,-0.098 q 0.117188,-0.8399 0.273438,-0.8399 z m 2.578125,0.3711 -0.09766,0.098 0,0.1953 0.273438,0.098 0,-0.1954 -0.175781,-0.1953 z m -3.144532,0.5664 q 0.566407,0 0.566407,0.4883 l 0.09766,0.2735 -0.09766,0 -0.761719,0.098 0,-0.098 -0.273438,-0.3711 -0.09766,0.098 -0.09766,0 0,-0.1953 0.664062,-0.293 z m 8.554688,-16.4257 -1.035156,-0.9375 0.07813,-0.098 0,-0.098 -1.132813,-1.8945 q -1.40625,-1.7187 -3.613281,-2.3828 -1.132813,-0.1367 -1.132813,-0.3711 l 0,-4.7461 0.195313,-0.1953 q 4.355469,0 8.4375,3.3203 2.558594,2.6758 2.949219,4.4727 l -0.195313,0.2734 0,0.1953 0.195313,0.1953 0,-0.5859 q 0.136718,0 0.292968,0.4687 l -5.039062,2.3829 z m 0,-7.5977 0,0.098 q 0.195312,0 0.195312,0.2929 l 0.175782,0 0,-0.3906 -0.371094,0 z m 3.789062,5.332 q 0,0.2735 -0.46875,0.2735 l 0,0.098 0.390625,0 0.566407,-0.1953 0,-0.1758 -0.195313,0 -0.09766,0.078 -0.09766,0 -0.09766,-0.078 z m -9.453125,6.4453 q 0.292969,0 0.703125,0.3907 0,-0.293 0.292969,-0.293 0,0.1563 0.683594,0.4883 l 0,-0.1953 q -0.46875,0 -0.878906,-0.6055 l -0.605469,0 -0.195313,0.2148 z m -1.113281,1.1915 0.410156,0 0,-0.2149 -0.09766,0.1172 -0.09766,0 -0.214844,-0.078 0,-1.5625 0.507813,0.1367 0.214843,-0.1953 0.09766,0 0.09766,0.098 0.09766,-0.098 3.984375,0 0.195313,0.1953 0,0.098 -0.09766,0 -0.488281,-0.098 -0.09766,0.098 0,0.098 0.800781,0.2148 0.09766,-0.3125 0.195313,0 0,1.7969 q -0.722656,-0.098 -1.09375,-0.5078 l -0.605469,0 0,-0.1953 -0.605469,0 q 0,-0.3906 -0.410156,-0.3906 l 0,0.098 q 0.234375,0.8985 0.507813,0.8985 0.3125,0 0.3125,0.2929 l 0.09766,0.098 0.09766,0 q 0,-0.3906 0.3125,-0.3906 l 0.292969,-0.1953 0.585937,0.3906 0.214844,0 0.09766,-0.098 0.09766,0 0.09766,0.6836 0,1.3086 -0.09766,0.098 0.09766,0.098 0,0.098 -0.09766,0.6836 -0.703125,-0.098 -0.195313,0.2149 -0.195312,0 0,-0.1172 -0.703125,0.1172 -1.210938,0 -0.09766,-0.1172 -0.09766,0.1172 -0.703125,0 -0.09766,-0.1172 -0.09766,0.1172 -0.585937,0 -0.410157,-0.1172 -0.390625,0.1172 -0.01953,0 0,-3.3789 z m 1.914063,0.1953 0.09766,0.3906 0.195312,0 0.195313,-0.1953 -0.195313,-0.1953 -0.292968,0 z m 0.09766,0.5859 0,0.4102 0.09766,0 0,-0.4102 -0.09766,0 z m 1.894531,0.1953 0.09766,0.5078 0.3125,-0.2929 -0.214843,-0.2149 -0.195313,0 z m -3.398437,0.4102 0,0.3906 0.3125,0.098 0.195312,-0.586 -0.507812,0.098 z m 1.191406,0.2929 0,0.1954 0.3125,0.7031 0.09766,0 0,-0.6055 q -0.195312,0 -0.195312,-0.293 l -0.214844,0 z m 0.214844,0.9961 q 0,0.293 -0.214844,0.293 l 0,0.1953 0.410156,-0.1953 0,-0.293 -0.195312,0 z"
         fill="#ffffff"
         id="path4162"/>
    </g>
  </g>
</svg>
