<svg height="100%" width="100%" id="bg-svg" viewBox="0 0 1440 700" xmlns="http://www.w3.org/2000/svg" class="transition duration-300 ease-in-out delay-150"><defs><linearGradient id="gradient"><stop offset="5%" stop-color="#f78da744"></stop><stop offset="95%" stop-color="#ff690044"></stop></linearGradient></defs><path d="M 0,700 C 0,700 0,140 0,140 C 91.74162679425837,141.02392344497608 183.48325358851673,142.04784688995215 280,143 C 376.51674641148327,143.95215311004785 477.8086124401914,144.8325358851675 567,153 C 656.1913875598086,161.1674641148325 733.2822966507177,176.62200956937798 823,161 C 912.7177033492823,145.37799043062202 1015.0622009569379,98.67942583732058 1120,90 C 1224.9377990430621,81.32057416267942 1332.468899521531,110.6602870813397 1440,140 C 1440,140 1440,700 1440,700 Z" stroke="none" stroke-width="0" fill="url(#gradient)" class="transition-all duration-300 ease-in-out delay-150"></path><defs><linearGradient id="gradient"><stop offset="5%" stop-color="#f78da766"></stop><stop offset="95%" stop-color="#ff690066"></stop></linearGradient></defs><path d="M 0,700 C 0,700 0,280 0,280 C 125.48325358851676,252.48803827751198 250.96650717703352,224.97607655502392 329,233 C 407.0334928229665,241.02392344497608 437.6172248803829,284.5837320574163 524,303 C 610.3827751196171,321.4162679425837 752.5645933014353,314.688995215311 863,300 C 973.4354066985647,285.311004784689 1052.1244019138755,262.6602870813397 1143,258 C 1233.8755980861245,253.3397129186603 1336.9377990430621,266.66985645933016 1440,280 C 1440,280 1440,700 1440,700 Z" stroke="none" stroke-width="0" fill="url(#gradient)" class="transition-all duration-300 ease-in-out delay-150"></path><defs><linearGradient id="gradient"><stop offset="5%" stop-color="#f78da788"></stop><stop offset="95%" stop-color="#ff690088"></stop></linearGradient></defs><path d="M 0,700 C 0,700 0,420 0,420 C 80.50717703349281,410.488038277512 161.01435406698562,400.97607655502395 250,393 C 338.9856459330144,385.02392344497605 436.4497607655502,378.5837320574163 547,376 C 657.5502392344498,373.4162679425837 781.1866028708135,374.688995215311 874,385 C 966.8133971291865,395.311004784689 1028.8038277511962,414.6602870813397 1118,422 C 1207.1961722488038,429.3397129186603 1323.598086124402,424.66985645933016 1440,420 C 1440,420 1440,700 1440,700 Z" stroke="none" stroke-width="0" fill="url(#gradient)" class="transition-all duration-300 ease-in-out delay-150"></path><defs><linearGradient id="gradient"><stop offset="5%" stop-color="#f78da7ff"></stop><stop offset="95%" stop-color="#ff6900ff"></stop></linearGradient></defs><path d="M 0,700 C 0,700 0,560 0,560 C 100.65071770334927,565.7033492822966 201.30143540669854,571.4066985645933 284,579 C 366.69856459330146,586.5933014354067 431.444976076555,596.0765550239234 522,606 C 612.555023923445,615.9234449760766 728.9186602870813,626.2870813397129 845,607 C 961.0813397129187,587.7129186602871 1076.8803827751196,538.7751196172248 1176,526 C 1275.1196172248804,513.2248803827752 1357.55980861244,536.6124401913876 1440,560 C 1440,560 1440,700 1440,700 Z" stroke="none" stroke-width="0" fill="url(#gradient)" class="transition-all duration-300 ease-in-out delay-150"></path></svg>
