<?xml version="1.0" encoding="UTF-8"?>
<!-- Created with Inkscape (http://www.inkscape.org/) -->
<svg xmlns="http://www.w3.org/2000/svg" height="64" width="224" viewBox="0 0 224 64" version="1.1" xmlns:xlink="http://www.w3.org/1999/xlink">
<defs>
<g id="all">
	<g id="gplus">
		<path d="M16 1a15 15 0 0 0 -15 15 15 15 0 0 0 15 15 15 15 0 0 0 15 -15 15 15 0 0 0 -15 -15zm-4.311 7.4023c0.841 0.01 1.679 0.1492 2.483 0.4336 0.739 0.2618 1.62 0.758 2.098 1.1841l0.361 0.322-1.027 1.033c-1.159 1.164-0.974 1.101-1.788 0.584-0.945-0.601-2.367-0.773-3.49-0.424-1.5352 0.477-2.8528 1.916-3.1912 3.481-0.1351 0.624-0.0558 1.931 0.1543 2.529 0.3652 1.039 1.2662 2.079 2.25 2.596 0.6889 0.361 1.2489 0.493 2.0979 0.492 1.326 0 2.334-0.38 3.129-1.172 0.492-0.491 0.906-1.233 0.943-1.686l0.021-0.255-2.027-0.04-2.025-0.037v-1.425-1.426l3.537-0.02 3.535-0.019 0.045 0.22c0.285 1.425 0.022 3.482-0.621 4.856-0.965 2.061-2.681 3.392-4.93 3.822-0.709 0.136-1.978 0.191-2.553 0.11-3.7144-0.524-6.4365-3.426-6.6773-7.122-0.0927-1.421 0.3102-3.077 1.0625-4.361 0.5029-0.859 1.7105-2.07 2.5703-2.58 1.2393-0.7354 2.6425-1.1062 4.0425-1.0957zm11.846 3.6387l1.781 0.037 0.057 2.475h2.627v1.949l-2.59 0.041-0.074 2.627-1.801-0.012v-2.562l-2.67-0.09 0.043-1.953h2.627v-2.512z"/>
	</g>
	<g id="twitter" transform="translate(32)">
		<path d="M16 1a15 15 0 0 0 -15 15 15 15 0 0 0 15 15 15 15 0 0 0 15 -15 15 15 0 0 0 -15 -15zm3.848 7c1.18 0 2.245 0.4903 2.994 1.2754 0.935-0.1815 1.812-0.5178 2.605-0.9805-0.307 0.9431-0.955 1.7341-1.802 2.2341 0.83-0.097 1.62-0.313 2.355-0.6345-0.549 0.8095-1.246 1.5215-2.047 2.0915 0.008 0.174 0.012 0.347 0.012 0.522 0 5.337-4.128 11.491-11.674 11.492-2.3169 0-4.4755-0.669-6.291-1.814 0.3212 0.037 0.6477 0.056 0.9785 0.056 1.9228 0 3.6935-0.647 5.0975-1.73-1.796-0.033-3.3114-1.2-3.8338-2.805 0.25 0.047 0.5075 0.072 0.7715 0.072 0.3744 0 0.7372-0.048 1.0823-0.14-1.8779-0.37-3.2933-2.005-3.2933-3.961 0-0.018 0.0014-0.034 0.002-0.051 0.5528 0.303 1.1842 0.485 1.8574 0.506-1.1016-0.724-1.8262-1.962-1.8262-3.363 0-0.74 0.2043-1.4328 0.5567-2.0298 2.0236 2.4438 5.0464 4.0498 8.4574 4.2188-0.071-0.296-0.106-0.603-0.106-0.92 0-2.2297 1.838-4.039 4.104-4.039z"/>
	</g>
	<g id="github" transform="translate(64)">
		<path d="M16,1C7.7165995,1 1.0000025,7.7157849 1.0000025,16.000704c0,6.627384 4.297554,12.249196 10.2581415,14.232714 0.750483,0.138128 1.023972,-0.325061 1.023972,-0.72287 0,-0.35637 -0.01289,-1.299325 -0.02026,-2.550764 -4.1723195,0.90612 -5.0526405,-2.011145 -5.0526405,-2.011145 -0.682342,-1.733046 -1.665797,-2.194394 -1.665797,-2.194394 -1.361921,-0.930062 0.103133,-0.911645 0.103133,-0.911645 1.505572,0.105898 2.297493,1.546114 2.297493,1.546114 1.337978,2.292004 3.5111565,1.62991 4.3656945,1.245914 0.136286,-0.968738 0.523959,-1.629911 0.952149,-2.004698 -3.3306745,-0.378471 -6.8326235,-1.665824 -6.8326235,-7.413793 0,-1.637277 0.584733,-2.977119 1.544247,-4.02505 -0.154701,-0.379392 -0.66945,-1.9052467 0.147334,-3.9698005 0,0 1.258786,-0.4033339 4.1244365,1.5378255 1.196169,-0.333349 2.479818,-0.4991026 3.75518,-0.5055487 1.27444,0.00645 2.557168,0.1721997 3.755179,0.5055487 2.863808,-1.9411594 4.120753,-1.5378255 4.120753,-1.5378255 0.818625,2.0645538 0.303877,3.5904085 0.150097,3.9698005 0.961355,1.047931 1.541483,2.387773 1.541483,4.02505 0,5.762702 -3.507474,7.030718 -6.848276,7.401822 0.537769,0.46319 1.017527,1.378517 1.017527,2.777294 0,2.005619 -0.01842,3.623559 -0.01842,4.115295 0,0.401492 0.270726,0.868365 1.031339,0.721949C26.706128,28.244374 30.999998,22.626246 30.999998,16.000704 30.999998,7.7157849 24.283402,1 15.998617,1"/>
	</g>
	<g id="email" transform="translate(96)">
		<path d="M16 1a15 15 0 0 0 -15 15 15 15 0 0 0 15 15 15 15 0 0 0 15 -15 15 15 0 0 0 -15 -15zm-8 7h16c1.1 0 2 0.9 2 2v12c0 1.1-0.9 2-2 2h-16c-1.1 0-2-0.9-2-2l0.0098-12c0-1.1 0.8902-2 1.9902-2zm0 2v2l8 5 8-5v-2l-8 5-8-5z"/>
	</g>
	<g id="feed" transform="translate(128)">
		<path d="M16 1a15 15 0 0 0 -15 15 15 15 0 0 0 15 15 15 15 0 0 0 15 -15 15 15 0 0 0 -15 -15zm-8 7a16 16 0 0 1 16 16h-3.2a12.8 12.8 0 0 0 -12.8 -12.8v-3.2zm0 5.395a10.606 10.606 0 0 1 10.605 10.605h-3.107a7.4971 7.4971 0 0 0 -7.498 -7.498v-3.107zm2.193 6.216a2.1943 2.1943 0 0 1 2.196 2.196 2.1943 2.1943 0 0 1 -2.196 2.193 2.1943 2.1943 0 0 1 -2.193 -2.193 2.1943 2.1943 0 0 1 2.193 -2.196z"/>
	</g>
	<g id="telegram" transform="translate(160)">
		<path d="M16 1a15 15 0 0 0 -15 15 15 15 0 0 0 15 15 15 15 0 0 0 15 -15 15 15 0 0 0 -15 -15zm7.617 6.834c0.619-0.0226 1.087 0.5387 0.836 1.5449l-3.017 14.217c-0.211 1.01-0.821 1.252-1.666 0.785l-4.598-3.397-2.209 2.149c-0.257 0.249-0.458 0.461-0.918 0.461l0.312-4.69 8.528-7.695c0.374-0.332-0.081-0.495-0.578-0.193l-10.526 6.64-4.5466-1.42c-0.9818-0.3-0.9886-0.974 0.2207-1.459l17.717-6.8317c0.152-0.0689 0.302-0.106 0.445-0.1113z"/>
	</g>
	<g id="reddit" transform="translate(192)">
		<path d="M16 1a15 15 0 0 0 -15 15 15 15 0 0 0 15 15 15 15 0 0 0 15 -15 15 15 0 0 0 -15 -15zm6.846 6.584c1.039 0 1.884 0.845 1.884 1.8848 0 1.0392-0.845 1.8862-1.884 1.8862-1.04 0-1.885-0.847-1.885-1.8862v-0.0254l-3.299-0.7383-1.133 3.6969c2.146 0.084 4.15 0.671 5.7 1.676 0.4-0.345 0.921-0.557 1.49-0.557 1.258 0 2.281 1.024 2.281 2.282 0 0.825-0.44 1.55-1.098 1.951 0.034 0.214 0.051 0.429 0.051 0.648 0 1.635-0.952 3.163-2.68 4.299-1.681 1.106-3.908 1.715-6.273 1.715s-4.592-0.609-6.2734-1.715c-1.7275-1.136-2.6797-2.664-2.6797-4.299 0-0.218 0.0172-0.434 0.0508-0.648-0.6579-0.401-1.0977-1.126-1.0977-1.951 0-1.258 1.0233-2.282 2.2812-2.282 0.5688 0 1.0904 0.212 1.4903 0.557 1.6235-1.054 3.7475-1.647 6.0095-1.683l1.293-4.2173c0.055-0.1789 0.239-0.2871 0.422-0.2461l3.611 0.8086c0.286-0.6786 0.957-1.1562 1.739-1.1562zm-9.838 8.389c-0.75 0-1.358 0.606-1.358 1.355 0 0.75 0.608 1.358 1.358 1.358 0.749-0.001 1.355-0.608 1.355-1.358 0-0.749-0.606-1.355-1.355-1.355zm6.049 0c-0.75 0-1.358 0.606-1.358 1.355 0 0.75 0.608 1.358 1.358 1.358 0.749 0 1.357-0.608 1.357-1.358 0-0.749-0.608-1.355-1.357-1.355zm-0.084 4.638c-0.085-0.001-0.17 0.028-0.241 0.086-0.68 0.558-1.522 0.807-2.732 0.807-1.211 0-2.054-0.249-2.734-0.807-0.161-0.131-0.398-0.108-0.53 0.053s-0.108 0.399 0.053 0.531c0.813 0.667 1.833 0.977 3.211 0.977s2.398-0.31 3.211-0.977c0.161-0.132 0.185-0.37 0.053-0.531-0.075-0.091-0.183-0.138-0.291-0.139z"/>
	</g>
</g>
</defs>
<use href="#all" xlink:href="#all" fill="#33848A"/>
<use href="#all" xlink:href="#all" transform="translate(0 32)" fill="#f6f6f6"/>
</svg>
