<?xml version="1.0" encoding="UTF-8"?>
<!-- Created with Inkscape (http://www.inkscape.org/) -->
<svg xmlns="http://www.w3.org/2000/svg" height="64" width="320" viewBox="0 0 320 64" version="1.1" xmlns:xlink="http://www.w3.org/1999/xlink">
<defs>
<g id="all">
	<g id="github">
		<path d="M16,1C7.7165995,1 1.0000025,7.7157849 1.0000025,16.000704c0,6.627384 4.297554,12.249196 10.2581415,14.232714 0.750483,0.138128 1.023972,-0.325061 1.023972,-0.72287 0,-0.35637 -0.01289,-1.299325 -0.02026,-2.550764 -4.1723195,0.90612 -5.0526405,-2.011145 -5.0526405,-2.011145 -0.682342,-1.733046 -1.665797,-2.194394 -1.665797,-2.194394 -1.361921,-0.930062 0.103133,-0.911645 0.103133,-0.911645 1.505572,0.105898 2.297493,1.546114 2.297493,1.546114 1.337978,2.292004 3.5111565,1.62991 4.3656945,1.245914 0.136286,-0.968738 0.523959,-1.629911 0.952149,-2.004698 -3.3306745,-0.378471 -6.8326235,-1.665824 -6.8326235,-7.413793 0,-1.637277 0.584733,-2.977119 1.544247,-4.02505 -0.154701,-0.379392 -0.66945,-1.9052467 0.147334,-3.9698005 0,0 1.258786,-0.4033339 4.1244365,1.5378255 1.196169,-0.333349 2.479818,-0.4991026 3.75518,-0.5055487 1.27444,0.00645 2.557168,0.1721997 3.755179,0.5055487 2.863808,-1.9411594 4.120753,-1.5378255 4.120753,-1.5378255 0.818625,2.0645538 0.303877,3.5904085 0.150097,3.9698005 0.961355,1.047931 1.541483,2.387773 1.541483,4.02505 0,5.762702 -3.507474,7.030718 -6.848276,7.401822 0.537769,0.46319 1.017527,1.378517 1.017527,2.777294 0,2.005619 -0.01842,3.623559 -0.01842,4.115295 0,0.401492 0.270726,0.868365 1.031339,0.721949C26.706128,28.244374 30.999998,22.626246 30.999998,16.000704 30.999998,7.7157849 24.283402,1 15.998617,1"/>
	</g>
	<g id="twitter" transform="translate(32)">
		<path d="M16 1a15 15 0 0 0 -15 15 15 15 0 0 0 15 15 15 15 0 0 0 15 -15 15 15 0 0 0 -15 -15zm3.848 7c1.18 0 2.245 0.4903 2.994 1.2754 0.935-0.1815 1.812-0.5178 2.605-0.9805-0.307 0.9431-0.955 1.7341-1.802 2.2341 0.83-0.097 1.62-0.313 2.355-0.6345-0.549 0.8095-1.246 1.5215-2.047 2.0915 0.008 0.174 0.012 0.347 0.012 0.522 0 5.337-4.128 11.491-11.674 11.492-2.3169 0-4.4755-0.669-6.291-1.814 0.3212 0.037 0.6477 0.056 0.9785 0.056 1.9228 0 3.6935-0.647 5.0975-1.73-1.796-0.033-3.3114-1.2-3.8338-2.805 0.25 0.047 0.5075 0.072 0.7715 0.072 0.3744 0 0.7372-0.048 1.0823-0.14-1.8779-0.37-3.2933-2.005-3.2933-3.961 0-0.018 0.0014-0.034 0.002-0.051 0.5528 0.303 1.1842 0.485 1.8574 0.506-1.1016-0.724-1.8262-1.962-1.8262-3.363 0-0.74 0.2043-1.4328 0.5567-2.0298 2.0236 2.4438 5.0464 4.0498 8.4574 4.2188-0.071-0.296-0.106-0.603-0.106-0.92 0-2.2297 1.838-4.039 4.104-4.039z"/>
	</g>
	<g id="linkedin" transform="translate(64)">
		<path d="m16 1a15 15 0 0 0-15 15 15 15 0 0 0 15 15 15 15 0 0 0 15-15 15 15 0 0 0-15-15zm-5.5 6.203c0.96602 0 1.75 0.79163 1.75 1.7656 0 0.974-0.78301 1.7637-1.75 1.7637-0.96602 0-1.75-0.7897-1.75-1.7637 0-0.974 0.784-1.7656 1.75-1.7656zm-1.5 4.797h3v11h-3zm5 0h3v1.7656c1.396-2.586 7-2.7784 7 2.4747v6.7598h-3v-5.6036c0-3.3681-4-3.113-4 0v5.6036h-3z" />
	</g>
	<g id="email" transform="translate(96)">
		<path d="M16 1a15 15 0 0 0 -15 15 15 15 0 0 0 15 15 15 15 0 0 0 15 -15 15 15 0 0 0 -15 -15zm-8 7h16c1.1 0 2 0.9 2 2v12c0 1.1-0.9 2-2 2h-16c-1.1 0-2-0.9-2-2l0.0098-12c0-1.1 0.8902-2 1.9902-2zm0 2v2l8 5 8-5v-2l-8 5-8-5z"/>
	</g>
	<g id="feed" transform="translate(128)">
		<path d="M16 1a15 15 0 0 0 -15 15 15 15 0 0 0 15 15 15 15 0 0 0 15 -15 15 15 0 0 0 -15 -15zm-8 7a16 16 0 0 1 16 16h-3.2a12.8 12.8 0 0 0 -12.8 -12.8v-3.2zm0 5.395a10.606 10.606 0 0 1 10.605 10.605h-3.107a7.4971 7.4971 0 0 0 -7.498 -7.498v-3.107zm2.193 6.216a2.1943 2.1943 0 0 1 2.196 2.196 2.1943 2.1943 0 0 1 -2.196 2.193 2.1943 2.1943 0 0 1 -2.193 -2.193 2.1943 2.1943 0 0 1 2.193 -2.196z"/>
	</g>
	<g id="telegram" transform="translate(160)">
		<path d="M16 1a15 15 0 0 0 -15 15 15 15 0 0 0 15 15 15 15 0 0 0 15 -15 15 15 0 0 0 -15 -15zm7.617 6.834c0.619-0.0226 1.087 0.5387 0.836 1.5449l-3.017 14.217c-0.211 1.01-0.821 1.252-1.666 0.785l-4.598-3.397-2.209 2.149c-0.257 0.249-0.458 0.461-0.918 0.461l0.312-4.69 8.528-7.695c0.374-0.332-0.081-0.495-0.578-0.193l-10.526 6.64-4.5466-1.42c-0.9818-0.3-0.9886-0.974 0.2207-1.459l17.717-6.8317c0.152-0.0689 0.302-0.106 0.445-0.1113z"/>
	</g>
	<g id="reddit" transform="translate(192)">
		<path d="M16 1a15 15 0 0 0 -15 15 15 15 0 0 0 15 15 15 15 0 0 0 15 -15 15 15 0 0 0 -15 -15zm6.846 6.584c1.039 0 1.884 0.845 1.884 1.8848 0 1.0392-0.845 1.8862-1.884 1.8862-1.04 0-1.885-0.847-1.885-1.8862v-0.0254l-3.299-0.7383-1.133 3.6969c2.146 0.084 4.15 0.671 5.7 1.676 0.4-0.345 0.921-0.557 1.49-0.557 1.258 0 2.281 1.024 2.281 2.282 0 0.825-0.44 1.55-1.098 1.951 0.034 0.214 0.051 0.429 0.051 0.648 0 1.635-0.952 3.163-2.68 4.299-1.681 1.106-3.908 1.715-6.273 1.715s-4.592-0.609-6.2734-1.715c-1.7275-1.136-2.6797-2.664-2.6797-4.299 0-0.218 0.0172-0.434 0.0508-0.648-0.6579-0.401-1.0977-1.126-1.0977-1.951 0-1.258 1.0233-2.282 2.2812-2.282 0.5688 0 1.0904 0.212 1.4903 0.557 1.6235-1.054 3.7475-1.647 6.0095-1.683l1.293-4.2173c0.055-0.1789 0.239-0.2871 0.422-0.2461l3.611 0.8086c0.286-0.6786 0.957-1.1562 1.739-1.1562zm-9.838 8.389c-0.75 0-1.358 0.606-1.358 1.355 0 0.75 0.608 1.358 1.358 1.358 0.749-0.001 1.355-0.608 1.355-1.358 0-0.749-0.606-1.355-1.355-1.355zm6.049 0c-0.75 0-1.358 0.606-1.358 1.355 0 0.75 0.608 1.358 1.358 1.358 0.749 0 1.357-0.608 1.357-1.358 0-0.749-0.608-1.355-1.357-1.355zm-0.084 4.638c-0.085-0.001-0.17 0.028-0.241 0.086-0.68 0.558-1.522 0.807-2.732 0.807-1.211 0-2.054-0.249-2.734-0.807-0.161-0.131-0.398-0.108-0.53 0.053s-0.108 0.399 0.053 0.531c0.813 0.667 1.833 0.977 3.211 0.977s2.398-0.31 3.211-0.977c0.161-0.132 0.185-0.37 0.053-0.531-0.075-0.091-0.183-0.138-0.291-0.139z"/>
	</g>
	<g id="dribbble" transform="translate(224)">
		<path d="m15.887 1a15 15 0 0 0-14.887 15 15 15 0 0 0 15 15 15 15 0 0 0 15-15 15 15 0 0 0-15-15 15 15 0 0 0-0.11328 0zm0.16602 4.7656c2.4528 0.011929 4.8516 0.90472 6.7422 2.582-0.18436 0.2626-1.7283 2.337-5.373 3.7031-1.6796-3.0859-3.5409-5.6206-3.8242-6 0.81261-0.19588 1.6375-0.28913 2.4551-0.28516zm-4.4102 0.97461c0.27024 0.3706 2.1024 2.9087 3.8008 5.9277-4.7945 1.2732-9.0181 1.2541-9.4766 1.248 0.66465-3.1806 2.8082-5.8232 5.6758-7.1758zm12.291 2.793c1.4276 1.7442 2.2919 3.9655 2.3145 6.3848-0.33794-0.07146-3.7262-0.75898-7.1367-0.33008-0.27832-0.6794-0.54058-1.2752-0.90039-2.0117 3.7897-1.5473 5.5066-3.7507 5.7227-4.043zm-7.6445 4.7109c0.29342 0.57426 0.57476 1.156 0.83203 1.7383-3.7064 1.044-7.0749 4.0426-8.7363 6.8867-1.6371-1.8171-2.6348-4.2209-2.6348-6.8535 0-0.10481 0.0027394-0.20842 0.0058594-0.3125 0.44845 0.0092 5.4145 0.072901 10.533-1.459zm5.75 2.7969c2.1651 0.024989 3.819 0.51857 4.082 0.60156-0.45687 2.852-2.0951 5.3143-4.3945 6.8691-0.10505-0.62352-0.64962-3.6226-1.9902-7.3066 0.80298-0.12854 1.581-0.17239 2.3027-0.16406zm-4.2227 0.63672c1.439 3.7395 2.0351 6.8742 2.1875 7.7734-3.2957 1.4039-7.2585 1.0182-10.295-1.3496 1.0707-2.1887 3.9751-5.0141 8.1074-6.4238z"/>
	</g>
	<g id="mastodon" transform="translate(256)">
		<path d="M 16,1 A 15,15 0 0 0 1,16 15,15 0 0 0 16,31 15,15 0 0 0 31,16 15,15 0 0 0 16,1 Z m -0.179687,5.175781 h 0.02539 c 3.281417,0 4.698392,0.19748 5.072265,0.2519535 2.216051,0.3223795 4.08449,1.986552 4.373047,4.0976565 0.157014,1.568127 0.02043,4.120252 0.01953,4.539062 0,0.123241 -0.01813,1.248428 -0.02539,1.367187 -0.194202,3.016608 -2.105053,4.208372 -4.113281,4.587891 -0.02724,0.0081 -0.05807,0.0133 -0.08984,0.01953 -1.27319,0.244709 -2.63759,0.309983 -3.931641,0.345703 -0.309468,0.008 -0.618292,0.0078 -0.927734,0.0078 -1.286658,3.29e-4 -2.567599,-0.14835 -3.818359,-0.445312 -0.0066,-0.0018 -0.0148,-0.0034 -0.02149,-0.002 -0.0067,0.0015 -0.01227,0.0055 -0.01758,0.0098 -0.0053,0.0043 -0.009,0.0094 -0.01172,0.01563 -0.0027,0.0062 -0.0042,0.01282 -0.0039,0.01953 0.03537,0.400759 0.122402,0.79565 0.261718,1.173828 0.173342,0.437569 0.778766,1.488281 3.029297,1.488281 1.307722,0.0023 2.612816,-0.148278 3.884766,-0.447266 0.0065,-0.0014 0.01305,-0.0014 0.01953,0 0.0065,0.0014 0.01236,0.0057 0.01758,0.0098 0.0052,0.004 0.0088,0.0078 0.01172,0.01367 0.003,0.0058 0.0038,0.013 0.0039,0.01953 v 1.480469 c -2.25e-4,0.007 -6e-4,0.01336 -0.0039,0.01953 -0.0033,0.0062 -0.008,0.01148 -0.01367,0.01563 -0.41562,0.29648 -0.981018,0.466276 -1.462891,0.617187 -0.213545,0.0661 -0.430058,0.123803 -0.648437,0.173828 -1.985292,0.445013 -4.057717,0.33763 -5.984375,-0.310547 C 9.6653295,24.622618 7.8287415,23.098259 7.375005,21.267575 7.1326935,20.276335 6.963108,19.270793 6.8652395,18.255856 6.7236735,16.727881 6.711196,15.196309 6.6503955,13.662106 6.6077455,12.592283 6.6317405,11.425019 6.861333,10.373044 7.3386655,8.2369375 9.306586,6.741179 11.460942,6.427731 11.834816,6.3732575 12.537988,6.1757775 15.820317,6.1757775 Z m -2.646485,3.125 c -0.933797,0 -1.686247,0.3235555 -2.259765,0.953125 -0.555975,0.631064 -0.833985,1.483068 -0.833985,2.554688 v 5.24414 h 2.109375 v -5.089843 c 9e-4,-1.07162 0.459485,-1.617188 1.376953,-1.617188 1.014558,0 1.523438,0.644838 1.523438,1.921875 v 2.787109 h 2.099609 v -2.787109 c 0,-1.277037 0.508881,-1.921875 1.523437,-1.921875 0.922912,0 1.376954,0.545568 1.376954,1.617188 v 5.089843 h 2.111328 l 0.002,-5.24414 c 0,-1.072203 -0.277984,-1.924206 -0.833985,-2.554688 -0.575341,-0.629569 -1.328832,-0.953125 -2.261718,-0.953125 -1.078988,0 -1.894973,0.4094495 -2.439453,1.226563 l -0.527344,0.869141 -0.52539,-0.869141 C 15.070751,9.7102305 14.25461,9.300781 13.173825,9.300781 Z" />
	</g>
	<g id="codeberg" transform="translate(288)" >
		<path opacity=".3" d="M 16.268524,7.9952375 A 0.13079773,0.09762818 0 0 0 16.141656,8.1110838 L 21.915285,29.75206 a 14.987149,14.987149 0 0 0 6.76982,-5.804159 L 16.382669,8.0432503 a 0.13079773,0.09762818 0 0 0 -0.114145,-0.048013 z" />
		<path d="M 15.98715,1 C 7.7096851,1 1,7.7100102 1,15.987215 c 0,2.815574 0.7926614,5.574295 2.2883228,7.96001 L 15.783786,7.7927845 c 0.08966,-0.1166892 0.315765,-0.1166892 0.405427,0 L 28.685327,23.947876 C 30.18099,21.56203 30.9743,18.803047 30.9743,15.987215 30.9743,7.7100102 24.264615,1 15.98715,1 Z" />
	</g>
</g>
</defs>
<use href="#all" xlink:href="#all" fill="#212121" />
<use href="#all" xlink:href="#all" fill="#fafafa" transform="translate(0 32)" />
</svg>
